<mxfile host="app.diagrams.net" agent="Mozilla/5.0 (iPad; CPU OS 18_2_0 like Mac OS X) AppleWebKit/605.1.15 (KHTML, like Gecko) CriOS/131.0.6778.134 Mobile/15E148 Safari/604.1" version="25.0.3">
  <diagram name="Page-1" id="ODm0d1F3FMiAv77DzJQk">
    <mxGraphModel dx="676" dy="1245" grid="0" gridSize="10" guides="1" tooltips="1" connect="1" arrows="1" fold="1" page="0" pageScale="1" pageWidth="827" pageHeight="1169" math="0" shadow="0">
      <root>
        <mxCell id="0" />
        <mxCell id="1" parent="0" />
        <mxCell id="YDVDj-y265pzjKEAt3dn-8" style="edgeStyle=none;curved=1;rounded=0;orthogonalLoop=1;jettySize=auto;html=1;entryX=0.5;entryY=0;entryDx=0;entryDy=0;fontSize=12;startSize=8;endSize=8;" edge="1" parent="1" source="YDVDj-y265pzjKEAt3dn-2" target="YDVDj-y265pzjKEAt3dn-6">
          <mxGeometry relative="1" as="geometry" />
        </mxCell>
        <mxCell id="YDVDj-y265pzjKEAt3dn-9" style="edgeStyle=none;curved=1;rounded=0;orthogonalLoop=1;jettySize=auto;html=1;entryX=0.5;entryY=0;entryDx=0;entryDy=0;fontSize=12;startSize=8;endSize=8;" edge="1" parent="1" source="YDVDj-y265pzjKEAt3dn-2" target="YDVDj-y265pzjKEAt3dn-7">
          <mxGeometry relative="1" as="geometry" />
        </mxCell>
        <mxCell id="YDVDj-y265pzjKEAt3dn-2" value="User" style="rhombus;whiteSpace=wrap;html=1;" vertex="1" parent="1">
          <mxGeometry x="165" y="-187" width="99" height="95" as="geometry" />
        </mxCell>
        <mxCell id="YDVDj-y265pzjKEAt3dn-4" value="" style="rounded=0;whiteSpace=wrap;html=1;" vertex="1" parent="1">
          <mxGeometry x="59" y="4" width="340" height="146" as="geometry" />
        </mxCell>
        <mxCell id="YDVDj-y265pzjKEAt3dn-5" value="Equip9 Assignment System&lt;div&gt;&lt;br&gt;&lt;/div&gt;" style="text;strokeColor=none;fillColor=none;html=1;align=center;verticalAlign=middle;whiteSpace=wrap;rounded=0;fontSize=16;" vertex="1" parent="1">
          <mxGeometry x="108" y="127" width="257" height="30" as="geometry" />
        </mxCell>
        <mxCell id="YDVDj-y265pzjKEAt3dn-6" value="Registration" style="ellipse;whiteSpace=wrap;html=1;" vertex="1" parent="1">
          <mxGeometry x="91" y="27" width="103" height="80" as="geometry" />
        </mxCell>
        <mxCell id="YDVDj-y265pzjKEAt3dn-7" value="Login" style="ellipse;whiteSpace=wrap;html=1;" vertex="1" parent="1">
          <mxGeometry x="273" y="29" width="99" height="80" as="geometry" />
        </mxCell>
      </root>
    </mxGraphModel>
  </diagram>
</mxfile>
